<svg width="179" height="60" viewBox="0 0 179 60" fill="none" xmlns="http://www.w3.org/2000/svg">
<rect width="60" height="60" rx="8" fill="#282C8C" fill-opacity="0.6"/>
<path d="M39.4886 17.7273H34.5909V32.3636H34.3864L24.3409 17.7273H20.0227V41H24.9432V26.3523H25.1136L35.2386 41H39.4886V17.7273Z" fill="white"/>
<path d="M80.2074 28.3438H83.25C83.1903 25.3949 80.6761 23.3068 76.9602 23.3068C73.2955 23.3068 70.5426 25.3693 70.5511 28.4545C70.5511 30.9602 72.3324 32.4006 75.2045 33.142L77.1903 33.6534C79.0739 34.1307 80.3182 34.7188 80.3267 36.0739C80.3182 37.5653 78.9034 38.5625 76.8409 38.5625C74.8636 38.5625 73.3295 37.6761 73.2017 35.8438H70.0909C70.2188 39.3125 72.8011 41.2642 76.8665 41.2642C81.0511 41.2642 83.4801 39.1761 83.4886 36.0994C83.4801 33.0739 80.983 31.6932 78.358 31.071L76.7216 30.6619C75.2898 30.321 73.7386 29.7159 73.7557 28.2585C73.7642 26.946 74.9403 25.983 76.9176 25.983C78.8011 25.983 80.0455 26.8608 80.2074 28.3438ZM86.6712 41H89.7564V27.9091H86.6712V41ZM88.2223 26.0511C89.2024 26.0511 90.0036 25.3011 90.0036 24.3807C90.0036 23.4517 89.2024 22.7017 88.2223 22.7017C87.2337 22.7017 86.4325 23.4517 86.4325 24.3807C86.4325 25.3011 87.2337 26.0511 88.2223 26.0511ZM96.5142 33.3295C96.5142 31.4375 97.6562 30.3466 99.2841 30.3466C100.878 30.3466 101.832 31.3949 101.832 33.142V41H104.918V32.6648C104.926 29.5284 103.136 27.7386 100.435 27.7386C98.4744 27.7386 97.1278 28.6761 96.5312 30.1335H96.3778V27.9091H93.429V41H96.5142V33.3295ZM112.321 41.2642C114.375 41.2642 115.602 40.3011 116.165 39.2017H116.267V41H119.233V32.2386C119.233 28.7784 116.412 27.7386 113.915 27.7386C111.162 27.7386 109.048 28.9659 108.366 31.3523L111.247 31.7614C111.554 30.8665 112.423 30.0994 113.932 30.0994C115.364 30.0994 116.148 30.8324 116.148 32.1193V32.1705C116.148 33.0568 115.219 33.0994 112.909 33.3466C110.369 33.6193 107.94 34.3778 107.94 37.3267C107.94 39.9006 109.824 41.2642 112.321 41.2642ZM113.122 38.9972C111.835 38.9972 110.915 38.4091 110.915 37.2756C110.915 36.0909 111.946 35.5966 113.327 35.4006C114.136 35.2898 115.756 35.0852 116.156 34.7614V36.304C116.156 37.7614 114.98 38.9972 113.122 38.9972ZM131.179 35.4943C131.179 37.4886 129.756 38.4773 128.392 38.4773C126.909 38.4773 125.92 37.429 125.92 35.767V27.9091H122.835V36.2443C122.835 39.3892 124.625 41.1705 127.199 41.1705C129.159 41.1705 130.54 40.1392 131.136 38.6733H131.273V41H134.264V27.9091H131.179V35.4943ZM147.688 23.5455H144.526V41H147.688V23.5455ZM154.561 33.3295C154.561 31.4375 155.703 30.3466 157.331 30.3466C158.925 30.3466 159.879 31.3949 159.879 33.142V41H162.964V32.6648C162.973 29.5284 161.183 27.7386 158.482 27.7386C156.521 27.7386 155.175 28.6761 154.578 30.1335H154.425V27.9091H151.476V41H154.561V33.3295ZM172.311 41.2557C175.601 41.2557 177.697 39.304 177.919 36.5256H174.97C174.706 37.9318 173.692 38.7415 172.337 38.7415C170.411 38.7415 169.166 37.1307 169.166 34.4545C169.166 31.8125 170.436 30.2273 172.337 30.2273C173.82 30.2273 174.732 31.1818 174.97 32.4432H177.919C177.706 29.6051 175.49 27.7386 172.294 27.7386C168.459 27.7386 166.038 30.5085 166.038 34.5057C166.038 38.4688 168.399 41.2557 172.311 41.2557Z" fill="#FDFDFD"/>
</svg>
